# Blender v2.80 (sub 72) OBJ File: '0111.blend'
# www.blender.org
mtllib 0111.mtl
o Cube
v 0.500000 0.500000 -0.500000
v 0.500000 -0.500000 -0.500000
v 0.500000 0.500000 0.500000
v 0.500000 -0.500000 0.500000
v -0.500000 0.500000 0.500000
v -0.500000 -0.500000 0.500000
v -0.500000 -0.500000 0.000000
v 0.000000 -0.500000 -0.500000
v 0.000000 0.146447 -0.500000
v 0.500000 0.500000 -0.500000
v -0.500000 0.500000 0.500000
v -0.500000 0.146447 0.000000
vt 0.375000 0.875000
vt 0.500000 0.750000
vt 0.625000 0.750000
vt 0.625000 1.000000
vt 0.375000 1.000000
vt 0.375000 0.250000
vt 0.625000 0.250000
vt 0.625000 0.500000
vt 0.375000 0.500000
vt 0.625000 0.500000
vt 0.536612 0.625000
vt 0.375000 0.625000
vt 0.125000 0.500000
vt 0.375000 0.500000
vt 0.375000 0.750000
vt 0.125000 0.750000
vt 0.625000 0.625000
vt 0.786612 0.625000
vt 0.875000 0.750000
vt 0.875000 0.750000
vt 0.375000 0.000000
vt 0.375000 0.000000
vt 0.625000 0.250000
vt 0.625000 0.250000
vt 0.375000 0.250000
vt 0.500000 0.000000
vt 0.625000 0.125000
vt 0.625000 0.500000
vt 0.786612 0.500000
vn 0.0000 -1.0000 0.0000
vn 0.0000 0.0000 1.0000
vn -1.0000 0.0000 0.0000
vn 1.0000 0.0000 0.0000
vn 0.0000 0.0000 -1.0000
vn 0.0000 1.0000 0.0000
vn -0.5000 0.7071 -0.5000
vn -0.7071 0.0000 -0.7071
usemtl Material
s off
f 7/1/1 8/2/1 2/3/1 4/4/1 6/5/1
f 4/6/2 3/7/2 5/8/2 6/9/2
f 6/9/3 5/8/3 11/10/3 12/11/3 7/12/3
f 2/13/4 1/14/4 3/15/4 4/16/4
f 8/17/5 9/18/5 10/19/5 1/20/5 2/3/5
f 1/21/6 10/22/6 11/23/6 5/24/6 3/25/6
f 11/23/7 10/22/7 9/26/7 12/27/7
f 9/18/8 8/17/8 7/28/8 12/29/8
